<svg xmlns="http://www.w3.org/2000/svg" width="32" height="32" fill="none"><g clip-path="url(#a)"><path fill="url(#b)" d="M21.5 23.787c-1.755 0-2.86.402-3.835.767-.845.317-1.534.576-2.665.576-1.17 0-1.82-.24-2.665-.576-.975-.365-2.041-.767-3.835-.767s-2.86.402-3.835.767c-.559.211-1.053.393-1.651.499-.585.096-1.014.441-1.014.873v.096c0 .575.728.988 1.482.873.962-.144 1.69-.413 2.353-.662.845-.317 1.521-.576 2.665-.576 1.144 0 1.82.24 2.665.576.975.364 2.041.767 3.835.767s2.86-.403 3.835-.767c.845-.317 1.534-.576 2.665-.576 1.17 0 1.82.24 2.665.576.676.249 1.404.527 2.379.671.176.025.357.022.53-.01.174-.032.336-.092.475-.175.139-.083.251-.188.329-.307a.717.717 0 0 0 .122-.38v-.087c0-.441-.442-.787-1.027-.883-.598-.096-1.079-.278-1.638-.498-.975-.375-2.08-.777-3.835-.777Zm0-4.269c-1.755 0-2.86.412-3.835.767-.845.307-1.534.576-2.665.576-1.17 0-1.82-.24-2.665-.576-.975-.364-2.041-.767-3.835-.767s-2.86.412-3.835.767c-.559.202-1.053.394-1.664.5-.572.095-1.001.44-1.001.872v.096c0 .133.04.264.117.383.078.12.19.225.33.309.14.084.302.143.477.174.174.032.356.034.532.007.975-.144 1.703-.422 2.379-.662.845-.336 1.495-.575 2.665-.575s1.82.24 2.665.575c.975.364 2.041.767 3.835.767s2.86-.412 3.835-.767c.845-.336 1.495-.575 2.665-.575s1.82.24 2.665.575c.676.25 1.404.528 2.379.672.177.025.359.021.533-.011.175-.033.337-.093.477-.178.139-.084.25-.19.328-.31a.713.713 0 0 0 .118-.384v-.086c0-.442-.442-.787-1.027-.883-.598-.096-1.079-.278-1.638-.499-.975-.364-2.08-.767-3.835-.767Zm3.835-7.75C24.36 11.402 23.281 11 21.5 11c-1.781 0-2.86.403-3.835.767-.845.307-1.534.576-2.665.576-1.17 0-1.82-.24-2.665-.576C11.36 11.413 10.294 11 8.5 11s-2.86.403-3.835.767c-.559.211-1.053.394-1.651.5-.585.095-1.014.44-1.014.872v.067c0 .576.702.998 1.456.883.975-.144 1.703-.422 2.379-.662.845-.317 1.521-.576 2.665-.576 1.144 0 1.82.24 2.665.576.975.364 2.041.767 3.835.767s2.86-.412 3.835-.767c.845-.307 1.534-.576 2.665-.576 1.17 0 1.82.24 2.665.576.676.25 1.404.527 2.379.671.177.026.359.022.533-.01.175-.033.337-.094.477-.178.139-.084.25-.19.328-.31a.713.713 0 0 0 .118-.384v-.086c0-.442-.442-.787-1.027-.883-.598-.096-1.079-.269-1.638-.48ZM21.5 15.248c-1.755 0-2.86.413-3.835.768-.845.335-1.495.575-2.665.575s-1.82-.24-2.665-.575c-.975-.365-2.041-.768-3.835-.768s-2.86.413-3.835.768c-.559.22-1.04.403-1.638.499-.585.096-1.027.44-1.027.882v.086c0 .133.04.264.117.384.078.12.19.225.33.308.14.084.302.144.477.175.174.031.356.033.532.006.975-.144 1.703-.422 2.379-.662.845-.306 1.534-.575 2.665-.575s1.82.24 2.665.575c.975.365 2.041.768 3.835.768s2.86-.413 3.835-.768c.845-.306 1.534-.575 2.665-.575 1.17 0 1.82.24 2.665.575.676.25 1.404.528 2.379.672.176.025.357.022.53-.01.174-.032.336-.092.475-.175.139-.083.251-.188.329-.307a.716.716 0 0 0 .122-.381v-.086c0-.442-.442-.787-1.027-.883-.598-.096-1.079-.278-1.638-.499-.975-.374-2.08-.777-3.835-.777Z"/><path fill="url(#c)" d="m6.781 1.483 4.293 2.38L12.45 1.38l4.372 7.295-4.292-2.38-1.377 2.483-4.373-7.295Z"/></g><defs><linearGradient id="b" x1="15" x2="15" y1="11" y2="27" gradientUnits="userSpaceOnUse"><stop stop-color="#FFBF00"/><stop offset="1" stop-color="#F2A50C"/></linearGradient><linearGradient id="c" x1="13.524" x2="10.081" y1="1.975" y2="8.183" gradientUnits="userSpaceOnUse"><stop stop-color="#FFBF00"/><stop offset="1" stop-color="#F2A50C"/></linearGradient><clipPath id="a"><path fill="#fff" d="M0 0h32v32H0z"/></clipPath></defs></svg>