<svg xmlns="http://www.w3.org/2000/svg" width="32" height="32" fill="none"><path fill="#FAB603" d="M21.912 3.583H11.088c-4.702 0-7.505 2.803-7.505 7.505v10.811c0 4.715 2.803 7.518 7.505 7.518h10.81c4.703 0 7.505-2.803 7.505-7.505V11.088c.013-4.702-2.79-7.505-7.491-7.505ZM7.78 16.358a8.687 8.687 0 0 1 2.545-6.02A8.677 8.677 0 0 1 16.5 7.782c2.325 0 4.52.904 6.16 2.558.04.038.078.09.117.142V9.37c0-.53.44-.969.969-.969.53 0 .969.44.969.969v3.423c0 .53-.44.969-.97.969h-3.422a.976.976 0 0 1-.969-.969c0-.53.44-.969.969-.969h1.072c-.039-.038-.064-.077-.103-.116a6.743 6.743 0 0 0-4.792-1.99c-1.809 0-3.514.711-4.792 1.99a6.731 6.731 0 0 0-1.977 4.689.982.982 0 0 1-.981.943h-.013c-.53 0-.956-.453-.956-.982Zm14.88 6.303A8.68 8.68 0 0 1 16.5 25.22a8.625 8.625 0 0 1-6.162-2.558 1.375 1.375 0 0 1-.116-.142v1.098c0 .53-.439.969-.969.969a.976.976 0 0 1-.968-.969v-3.423c0-.53.439-.968.968-.968h3.423c.53 0 .97.439.97.968 0 .53-.44.969-.97.969h-1.072c.039.039.065.078.104.116a6.742 6.742 0 0 0 4.792 1.99c1.808 0 3.513-.711 4.792-1.99a6.702 6.702 0 0 0 1.976-4.766c0-.53.44-.969.969-.969.53 0 .969.44.969.969 0 2.338-.905 4.52-2.545 6.148Z"/></svg>