<svg xmlns="http://www.w3.org/2000/svg" width="32" height="32" fill="none"><path fill="url(#a)" d="M25.946 13.333a1.332 1.332 0 0 0-.093 1.334c.33.772.564 1.582.693 2.413a10.667 10.667 0 0 1-.92 6.307 1.334 1.334 0 0 1-1.186.706H7.573a1.333 1.333 0 0 1-1.187-.72A10.667 10.667 0 0 1 17.333 8.08c.968.114 1.916.365 2.813.747a1.333 1.333 0 0 0 1.334-.094 1.333 1.333 0 0 0-.227-2.346A13.333 13.333 0 0 0 4.466 25.333a2.666 2.666 0 0 0 2.294 1.334h18.466a2.668 2.668 0 0 0 2.32-1.334 13.333 13.333 0 0 0 1.76-5.84c.007-.116 2.19.123 2.194.007.007-.198.002-1.802 0-2 0-.083-1.998.083-2 0-.046-1.655-.573-2.488-1.22-4.02a1.334 1.334 0 0 0-2.334-.147Z"/><path fill="url(#b)" d="M17.73 16.46a1.938 1.938 0 0 0-3.874-.111c.363 2.129 3.39 2.215 3.873.11Z"/><defs><linearGradient id="a" x1="17.084" x2="17.084" y1="5.308" y2="26.667" gradientUnits="userSpaceOnUse"><stop stop-color="#FFBF00"/><stop offset="1" stop-color="#F2A50C"/></linearGradient><linearGradient id="b" x1="18.71" x2="12.676" y1="23.071" y2="16.682" gradientUnits="userSpaceOnUse"><stop stop-color="#FFBF00"/><stop offset="1" stop-color="#F2A50C"/></linearGradient></defs></svg>