<svg xmlns="http://www.w3.org/2000/svg" width="92" height="70" fill="none"><g fill="#fff" clip-path="url(#a)"><path d="M27.991 43.163c-.335.014-.742.089-1.22.225-.477.136-.87.302-1.181.497-.44.272-.792.623-1.056 1.051a12.64 12.64 0 0 0-.785 1.52c-.866 2.063-2.164 5.28-3.894 9.65-1.73 4.368-3.512 8.922-5.347 13.661H12.9c-1.86-5.024-3.654-9.866-5.385-14.529-1.73-4.66-2.905-7.81-3.525-9.446a3.7 3.7 0 0 0-.62-1.062 4.58 4.58 0 0 0-1.026-.867 4.074 4.074 0 0 0-1.162-.497A6.76 6.76 0 0 0 0 43.162v-1.383h11.374v1.383c-.968.051-1.785.15-2.45.292-.667.143-.999.396-.999.76 0 .142.026.312.078.506.051.195.097.351.135.467.478 1.273 1.253 3.348 2.324 6.226 1.073 2.878 2.597 6.976 4.572 12.29a590.84 590.84 0 0 0 3.39-8.518C19.7 51.91 20.56 49.662 21 48.441c.427-1.182.674-2 .745-2.456.072-.454.106-.824.106-1.11 0-.286-.132-.548-.396-.75-.265-.2-.617-.373-1.056-.516a8.978 8.978 0 0 0-1.298-.293c-.44-.065-.884-.116-1.337-.156v-1.382h10.224v1.382l.003.004ZM36.84 69.417h-9.22V68.13c.297-.027.603-.052.92-.078.316-.027.592-.078.823-.157.362-.116.63-.32.803-.613.174-.292.262-.671.262-1.138V54.3c0-.416-.095-.795-.281-1.139a2.51 2.51 0 0 0-.785-.865c-.247-.157-.6-.29-1.066-.4a7.975 7.975 0 0 0-1.28-.203v-1.287l6.742-.428.271.272v15.657c0 .456.086.831.26 1.13.173.3.446.52.818.662.282.116.558.21.828.282.27.072.57.12.904.146v1.286l.001.004Zm-2.42-27.013c0 .74-.244 1.386-.728 1.938-.484.551-1.083.827-1.792.827-.66 0-1.23-.262-1.714-.79-.484-.524-.727-1.126-.727-1.8 0-.715.243-1.338.727-1.87.485-.531 1.056-.799 1.714-.799.736 0 1.34.25 1.812.75.47.5.707 1.08.707 1.742v.002ZM50.823 60.009a4.888 4.888 0 0 1 1.22 1.617c.284.61.426 1.357.426 2.24 0 1.779-.661 3.233-1.985 4.361-1.324 1.13-3.038 1.695-5.144 1.695-1.11 0-2.133-.201-3.07-.603-.938-.402-1.605-.773-2.005-1.11l-.387 1.266h-1.453l-.193-6.68h1.337c.102.509.322 1.102.66 1.778.335.678.742 1.29 1.22 1.836a6.74 6.74 0 0 0 1.81 1.446c.705.39 1.495.586 2.374.586 1.24 0 2.195-.284 2.868-.852.67-.568 1.006-1.38 1.006-2.44 0-.544-.106-1.014-.319-1.412a3.113 3.113 0 0 0-.939-1.041 7.32 7.32 0 0 0-1.568-.808c-.62-.24-1.31-.477-2.073-.711a19.183 19.183 0 0 1-2.024-.75c-.742-.317-1.379-.69-1.908-1.12a5.464 5.464 0 0 1-1.395-1.674c-.361-.663-.542-1.44-.542-2.337 0-1.57.582-2.9 1.744-3.992 1.162-1.09 2.719-1.637 4.67-1.637.748 0 1.513.098 2.295.292.782.195 1.416.43 1.907.702l.446-1.012h1.395l.291 6.172H50.15c-.271-1.382-.856-2.505-1.753-3.372-.898-.868-1.992-1.301-3.285-1.301-1.059 0-1.892.267-2.499.804-.606.536-.91 1.183-.91 1.942 0 .585.099 1.072.3 1.46.2.39.501.722.901.994.387.26.875.504 1.463.731.587.228 1.314.484 2.18.77a18.79 18.79 0 0 1 2.411.954c.756.363 1.379.766 1.87 1.207l-.005-.001ZM72.458 69.066c-.607.221-1.14.399-1.599.535a5.468 5.468 0 0 1-1.558.205c-1.007 0-1.812-.238-2.412-.712-.6-.473-.985-1.164-1.152-2.073h-.115c-.84.935-1.74 1.648-2.703 2.142-.961.493-2.12.739-3.477.739-1.433 0-2.611-.442-3.535-1.324-.924-.883-1.385-2.04-1.385-3.466 0-.74.102-1.403.31-1.988.207-.585.516-1.11.931-1.577.322-.388.749-.736 1.28-1.041a11.311 11.311 0 0 1 1.492-.731c.581-.221 1.76-.63 3.535-1.227 1.775-.596 2.973-1.065 3.593-1.402v-1.928c0-.167-.036-.493-.106-.973a4.103 4.103 0 0 0-.454-1.363 3.873 3.873 0 0 0-1.094-1.256c-.471-.357-1.14-.535-2.005-.535a4.48 4.48 0 0 0-1.656.302c-.511.201-.87.413-1.075.633 0 .26.062.643.184 1.15.122.507.183.974.183 1.403 0 .455-.203.87-.61 1.246-.406.377-.971.565-1.694.565-.646 0-1.12-.231-1.424-.691a2.747 2.747 0 0 1-.455-1.549c0-.572.21-1.168.63-1.713.42-.545.965-1.032 1.636-1.46.582-.365 1.284-.672 2.112-.926a8.26 8.26 0 0 1 2.422-.38c1.084 0 2.031.074 2.837.224.807.15 1.54.47 2.199.963.657.48 1.158 1.134 1.5 1.958.343.824.514 1.886.514 3.183 0 1.858-.02 3.503-.057 4.937a178.368 178.368 0 0 0-.058 4.704c0 .507.087.909.26 1.208.174.299.444.552.804.76.194.116.5.182.92.194.42.013.85.02 1.288.02v1.246l-.006-.002Zm-2.306-28.219c-.129.494-.322 1-.582 1.519a6.972 6.972 0 0 1-1.066 1.538 6.583 6.583 0 0 1-1.463 1.218c-.51.306-1.12.457-1.83.457-.712 0-1.383-.106-1.938-.32a10.094 10.094 0 0 1-1.433-.672c-.453-.259-.88-.493-1.287-.7a2.92 2.92 0 0 0-1.347-.313c-.4 0-.701.051-.901.156-.2.105-.41.28-.63.525a4.95 4.95 0 0 0-.62.926c-.206.384-.4.73-.581 1.041l-1.124-.486c.129-.416.349-.916.66-1.5a9.49 9.49 0 0 1 1.006-1.538A5.42 5.42 0 0 1 58.43 41.5a3.361 3.361 0 0 1 1.743-.497c.724 0 1.347.107 1.87.321.523.214 1.004.445 1.442.691.491.273.904.507 1.24.702.335.194.749.292 1.24.292.515 0 .932-.062 1.249-.184.316-.123.565-.296.745-.517.207-.246.379-.514.514-.8.136-.285.301-.654.495-1.11l1.181.45h.002Zm-4.456 17.937c-1.097.326-2.06.645-2.886.957-.826.313-1.595.703-2.305 1.172a5.267 5.267 0 0 0-1.53 1.572c-.376.604-.563 1.324-.563 2.156 0 1.08.281 1.875.843 2.381.562.507 1.276.761 2.14.761.918 0 1.724-.224 2.422-.672a7.085 7.085 0 0 0 1.763-1.59l.116-6.733v-.004ZM92 59.62c0 1.35-.213 2.678-.64 3.983-.426 1.304-1.034 2.413-1.823 3.32-.892 1.038-1.927 1.81-3.102 2.318-1.177.506-2.496.759-3.957.759a8.898 8.898 0 0 1-3.47-.691 8.754 8.754 0 0 1-2.93-2.016c-.839-.869-1.508-1.93-2.006-3.183-.497-1.253-.747-2.659-.747-4.218 0-2.999.87-5.453 2.608-7.36 1.739-1.91 4.018-2.863 6.836-2.863 2.818 0 4.884.905 6.623 2.716C91.13 54.197 92 56.61 92 59.62Zm-4.01.038c0-.974-.097-2.002-.29-3.087-.194-1.083-.487-2.002-.873-2.755-.413-.804-.957-1.45-1.63-1.937-.673-.487-1.494-.731-2.464-.731s-1.846.247-2.552.739c-.706.493-1.278 1.168-1.717 2.025-.415.793-.706 1.695-.875 2.707a17.905 17.905 0 0 0-.252 2.941c0 1.246.1 2.4.3 3.456.2 1.059.52 2.003.96 2.833.44.831.994 1.484 1.66 1.958.666.473 1.49.71 2.474.71 1.618 0 2.9-.785 3.843-2.355.944-1.57 1.416-3.739 1.416-6.506v.002ZM48.458 24.592c3.058 0 5.537-2.492 5.537-5.567 0-3.074-2.48-5.566-5.537-5.566-3.058 0-5.537 2.492-5.537 5.566 0 3.075 2.479 5.567 5.537 5.567Z"/><path d="M48.458 19.94c.502 0 .909-.41.909-.915a.911.911 0 0 0-.91-.913.911.911 0 0 0-.908.913c0 .505.407.914.909.914ZM50.276 17.447a.414.414 0 0 0 .413-.416.414.414 0 0 0-.413-.415.414.414 0 0 0-.414.415c0 .23.185.416.414.416Z"/><path d="M48.458 11.206c6.806 0 12.673 3.134 15.376 7.653 1.016-1.701 1.586-3.6 1.586-5.603C65.42 5.936 57.826 0 48.458 0 39.09 0 31.495 5.935 31.495 13.256c0 2.002.569 3.902 1.587 5.603 2.702-4.521 8.57-7.653 15.376-7.653ZM48.458 26.512c-6.806 0-12.674-3.133-15.376-7.653-1.016 1.702-1.587 3.6-1.587 5.603 0 7.321 7.595 13.256 16.963 13.256 9.368 0 16.962-5.935 16.962-13.256 0-2.002-.568-3.901-1.587-5.603-2.702 4.521-8.57 7.653-15.375 7.653Z"/></g><defs><clipPath id="a"><path fill="#fff" d="M0 0h92v70H0z"/></clipPath></defs></svg>